<svg width="640" height="30" viewBox="0 0 640 30" fill="none" xmlns="http://www.w3.org/2000/svg">
<path d="M110.666 26.8767C111.981 26.6119 112.858 25.4425 113.132 24.8909H47.7605C48.0346 25.4425 48.9117 26.6119 50.2273 26.8767C50.3644 27.649 50.9674 29.1935 52.2831 29.1935H108.61C109.925 29.1935 110.528 27.649 110.666 26.8767Z" fill="url(#paint0_linear_1244_5586)"/>
<path fill-rule="evenodd" clip-rule="evenodd" d="M110.605 27.1482V27.0425H50.2612C50.4486 27.8499 51.0557 29.1935 52.2828 29.1935H108.61C109.784 29.1935 110.391 27.9618 110.605 27.1482Z" fill="url(#paint1_linear_1244_5586)"/>
<mask id="mask0_1244_5586" style="mask-type:alpha" maskUnits="userSpaceOnUse" x="0" y="0" width="981" height="25">
<path d="M981 3.3747V0.797119H0V3.3747C0 10.9064 0 14.6723 2.11032 17.549C3.9666 20.0794 6.92857 22.1368 10.5718 23.4261C14.7135 24.8919 20.1353 24.8919 30.979 24.8919H950.021C960.865 24.8919 966.287 24.8919 970.428 23.4261C974.071 22.1368 977.033 20.0794 978.89 17.549C981 14.6723 981 10.9064 981 3.3747Z" fill="white"/>
</mask>
<g mask="url(#mask0_1244_5586)">
<path d="M981 3.3747V0.797119H0V3.3747C0 10.9064 0 14.6723 2.11032 17.549C3.9666 20.0794 6.92857 22.1368 10.5718 23.4261C14.7135 24.8919 20.1353 24.8919 30.979 24.8919H950.021C960.865 24.8919 966.287 24.8919 970.428 23.4261C974.071 22.1368 977.033 20.0794 978.89 17.549C981 14.6723 981 10.9064 981 3.3747Z" fill="url(#paint2_linear_1244_5586)"/>
<rect width="111.008" height="24.0947" transform="matrix(-1 0 0 1 111.007 0.797119)" fill="url(#paint3_linear_1244_5586)"/>
<g filter="url(#filter0_f_1244_5586)">
<path d="M2.15174 -3.50537H14.6294V9.18739C14.6294 12.633 11.8362 15.4262 8.39056 15.4262C4.94495 15.4262 2.15174 12.633 2.15174 9.18739V-3.50537Z" fill="url(#paint4_linear_1244_5586)"/>
</g>
</g>
<path d="M402.298 0.797363H578.705C578.705 7.45094 573.312 12.8447 566.658 12.8447H414.345C407.691 12.8447 402.298 7.45094 402.298 0.797363Z" fill="url(#paint5_linear_1244_5586)"/>
<defs>
<filter id="filter0_f_1244_5586" x="-0.42984" y="-6.08695" width="17.6408" height="24.0948" filterUnits="userSpaceOnUse" color-interpolation-filters="sRGB">
<feFlood flood-opacity="0" result="BackgroundImageFix"/>
<feBlend mode="normal" in="SourceGraphic" in2="BackgroundImageFix" result="shape"/>
<feGaussianBlur stdDeviation="1.29079" result="effect1_foregroundBlur_1244_5586"/>
</filter>
<linearGradient id="paint0_linear_1244_5586" x1="47.7605" y1="27.0422" x2="113.132" y2="27.0422" gradientUnits="userSpaceOnUse">
<stop stop-color="#8C8D91"/>
<stop offset="0.173014" stop-color="#525358"/>
<stop offset="0.31824" stop-color="#78797D"/>
<stop offset="0.465029" stop-color="#A0A0A2"/>
<stop offset="0.691458" stop-color="#9A9A9C"/>
<stop offset="0.825754" stop-color="#4F5055"/>
<stop offset="0.941311" stop-color="#9E9EA0"/>
<stop offset="1" stop-color="#848589"/>
</linearGradient>
<linearGradient id="paint1_linear_1244_5586" x1="50.2612" y1="28.118" x2="110.605" y2="28.118" gradientUnits="userSpaceOnUse">
<stop stop-color="#575757"/>
<stop offset="0.0827846" stop-color="#2D2D2D"/>
<stop offset="0.490477" stop-color="#4E4E4E"/>
<stop offset="0.824814" stop-color="#2A2A2A"/>
<stop offset="1" stop-color="#5C5C5C"/>
</linearGradient>
<linearGradient id="paint2_linear_1244_5586" x1="490.5" y1="0.797119" x2="490.5" y2="24.8919" gradientUnits="userSpaceOnUse">
<stop stop-color="#DADBDD"/>
<stop offset="0.213542" stop-color="#D6D7D9"/>
<stop offset="0.498033" stop-color="#C7C8CA"/>
<stop offset="0.625903" stop-color="#949597"/>
<stop offset="0.772278" stop-color="#858688"/>
<stop offset="0.880208" stop-color="#D2D3D5"/>
<stop offset="1" stop-color="#999A9C"/>
</linearGradient>
<linearGradient id="paint3_linear_1244_5586" x1="111.008" y1="12.4124" x2="3.79956e-08" y2="12.4124" gradientUnits="userSpaceOnUse">
<stop stop-color="#A9AAAC"/>
<stop offset="0.259918" stop-color="#858688"/>
<stop offset="1" stop-color="#858688" stop-opacity="0"/>
</linearGradient>
<linearGradient id="paint4_linear_1244_5586" x1="2.15174" y1="2.98546" x2="14.6294" y2="2.98546" gradientUnits="userSpaceOnUse">
<stop offset="0.0875682" stop-color="white" stop-opacity="0.17"/>
<stop offset="0.272185" stop-color="white" stop-opacity="0.65"/>
<stop offset="0.489769" stop-color="white" stop-opacity="0.65"/>
<stop offset="0.677083" stop-color="white" stop-opacity="0.19"/>
<stop offset="1" stop-color="white" stop-opacity="0"/>
</linearGradient>
<linearGradient id="paint5_linear_1244_5586" x1="402.715" y1="6.63851" x2="578.705" y2="6.63849" gradientUnits="userSpaceOnUse">
<stop stop-color="#25262B"/>
<stop offset="0.015659" stop-color="#606166"/>
<stop offset="0.035819" stop-color="#9FA0A4"/>
<stop offset="0.0504351" stop-color="#C8C8CE"/>
<stop offset="0.479167" stop-color="#D7D8DD"/>
<stop offset="0.941214" stop-color="#CBCBD3"/>
<stop offset="0.970403" stop-color="#A7A8AC"/>
<stop offset="0.980129" stop-color="#595A5E"/>
<stop offset="1" stop-color="#27282C"/>
</linearGradient>
</defs>
</svg>
